<svg xmlns="http://www.w3.org/2000/svg" xmlns:xlink="http://www.w3.org/1999/xlink" version="1.0" x="0" y="0" width="2400" height="2400" viewBox="148.2332036590576 103.23320365905762 43.533600311279294 43.533600311279294" preserveAspectRatio="xMidYMid meet" color-interpolation-filters="sRGB"><g><defs><linearGradient id="92" x1="0%" y1="0%" x2="100%" y2="0%"><stop offset="0%" stop-color="#fa71cd"></stop> <stop offset="100%" stop-color="#9b59b6"></stop></linearGradient><linearGradient id="93" x1="0%" y1="0%" x2="100%" y2="0%"><stop offset="0%" stop-color="#f9d423"></stop> <stop offset="100%" stop-color="#f83600"></stop></linearGradient><linearGradient id="94" x1="0%" y1="0%" x2="100%" y2="0%"><stop offset="0%" stop-color="#0064d2"></stop> <stop offset="100%" stop-color="#1cb0f6"></stop></linearGradient><linearGradient id="95" x1="0%" y1="0%" x2="100%" y2="0%"><stop offset="0%" stop-color="#f00978"></stop> <stop offset="100%" stop-color="#3f51b1"></stop></linearGradient><linearGradient id="96" x1="0%" y1="0%" x2="100%" y2="0%"><stop offset="0%" stop-color="#7873f5"></stop> <stop offset="100%" stop-color="#ec77ab"></stop></linearGradient><linearGradient id="97" x1="0%" y1="0%" x2="100%" y2="0%"><stop offset="0%" stop-color="#f9d423"></stop> <stop offset="100%" stop-color="#e14fad"></stop></linearGradient><linearGradient id="98" x1="0%" y1="0%" x2="100%" y2="0%"><stop offset="0%" stop-color="#009efd"></stop> <stop offset="100%" stop-color="#2af598"></stop></linearGradient><linearGradient id="99" x1="0%" y1="0%" x2="100%" y2="0%"><stop offset="0%" stop-color="#ffcc00"></stop> <stop offset="100%" stop-color="#00b140"></stop></linearGradient><linearGradient id="100" x1="0%" y1="0%" x2="100%" y2="0%"><stop offset="0%" stop-color="#d51007"></stop> <stop offset="100%" stop-color="#ff8177"></stop></linearGradient><linearGradient id="102" x1="0%" y1="0%" x2="100%" y2="0%"><stop offset="0%" stop-color="#a2b6df"></stop> <stop offset="100%" stop-color="#0c3483"></stop></linearGradient><linearGradient id="103" x1="0%" y1="0%" x2="100%" y2="0%"><stop offset="0%" stop-color="#7ac5d8"></stop> <stop offset="100%" stop-color="#eea2a2"></stop></linearGradient><linearGradient id="104" x1="0%" y1="0%" x2="100%" y2="0%"><stop offset="0%" stop-color="#00ecbc"></stop> <stop offset="100%" stop-color="#007adf"></stop></linearGradient><linearGradient id="105" x1="0%" y1="0%" x2="100%" y2="0%"><stop offset="0%" stop-color="#b88746"></stop> <stop offset="100%" stop-color="#fdf5a6"></stop></linearGradient></defs><g fill="#e69138" class="iconsvg-imagesvg" transform="translate(148.6599998474121,103.659999928428)"><rect fill="#020f40" fill-opacity="0" stroke-width="2" x="0" y="0" width="42.67999999999995" height="42.67999999999995" class="image-rect"></rect> <svg viewBox="0 0 60 60" x="0" y="0" width="42.67999999999995" height="42.67999999999995" class="image-svg-svg bn" style="overflow: visible;"><g hollow-target="iconBnFill" mask="url(#0557e34d-e115-48ea-b801-329555524bc9)"><g><svg xmlns="http://www.w3.org/2000/svg" viewBox="0.8995 0.89949 94.20101 94.20102" style="overflow: visible;" width="60" height="60" x="0" y="0" filtersec="colorsf5640227637" filter="url(#7DQ8ZhtSAorEda4YWOmhr)"><g transform="scale(1, 1) skewX(0)"><path d="M52.95 2.95l40.1 40.1a7 7 0 0 1 0 9.9l-40.1 40.1a7 7 0 0 1-9.9 0l-40.1-40.1a7 7 0 0 1 0-9.9l40.1-40.1a7 7 0 0 1 9.9 0z" fill-rule="evenodd"></path></g><defs><filter id="7DQ8ZhtSAorEda4YWOmhr"><feColorMatrix type="matrix" values="0 0 0 0 0.8984375  0 0 0 0 0.56640625  0 0 0 0 0.21875  0 0 0 1 0"></feColorMatrix></filter></defs></svg></g> <g filter="url(#colors2537066414)"><svg xmlns="http://www.w3.org/2000/svg" xmlns:xlink="http://www.w3.org/1999/xlink" viewBox="0 0 51.84000000000001 51.912000000000006" width="37.62" height="37.62" x="11.190000000000001" y="11.190000000000001" class="image-svg-letter"><path transform="translate(-4.104 51.912000000000006)" d="M55.94 0L4.10 0L4.10-51.91L9.94-51.91L9.94-5.83L55.94-5.83L55.94 0Z"></path></svg></g></g><mask id="0557e34d-e115-48ea-b801-329555524bc9"><g fill="white"><svg xmlns="http://www.w3.org/2000/svg" viewBox="0.8995 0.89949 94.20101 94.20102" style="overflow: visible;" width="60" height="60" x="0" y="0" filtersec="colorsf5640227637"><g transform="scale(1, 1) skewX(0)"><path d="M52.95 2.95l40.1 40.1a7 7 0 0 1 0 9.9l-40.1 40.1a7 7 0 0 1-9.9 0l-40.1-40.1a7 7 0 0 1 0-9.9l40.1-40.1a7 7 0 0 1 9.9 0z" fill-rule="evenodd"></path></g><defs></defs></svg></g> <g fill="black"><svg xmlns="http://www.w3.org/2000/svg" xmlns:xlink="http://www.w3.org/1999/xlink" viewBox="0 0 51.84000000000001 51.912000000000006" width="37.62" height="37.62" x="11.190000000000001" y="11.190000000000001" class="image-svg-letter"><path transform="translate(-4.104 51.912000000000006)" d="M55.94 0L4.10 0L4.10-51.91L9.94-51.91L9.94-5.83L55.94-5.83L55.94 0Z"></path></svg></g></mask></svg> <defs><filter id="colors2537066414"><feColorMatrix type="matrix" values="0 0 0 0 0.0078125  0 0 0 0 0.05859375  0 0 0 0 0.25  0 0 0 1 0" class="icon-feColorMatrix "></feColorMatrix></filter> <filter id="colorsf5640227637"><feColorMatrix type="matrix" values="0 0 0 0 0.99609375  0 0 0 0 0.99609375  0 0 0 0 0.99609375  0 0 0 1 0" class="icon-fecolormatrix"></feColorMatrix></filter> <filter id="colorsb8781880491"><feColorMatrix type="matrix" values="0 0 0 0 0  0 0 0 0 0  0 0 0 0 0  0 0 0 1 0" class="icon-fecolormatrix"></feColorMatrix></filter></defs></g><defs v-gra="od"></defs></g></svg>